<svg width="24" height="24" viewBox="0 0 24 24" fill="none" xmlns="http://www.w3.org/2000/svg">
<path d="M15.0074 5.01374C15.9894 5.20496 16.8918 5.68429 17.5993 6.39039C18.3067 7.09648 18.787 7.99722 18.9786 8.97731M15.0074 1C17.0476 1.22621 18.95 2.13807 20.4024 3.58586C21.8548 5.03365 22.7708 6.93131 23 8.96727M21.9946 16.9747V19.985C21.9958 20.2644 21.9384 20.5411 21.8263 20.7971C21.7141 21.0532 21.5496 21.283 21.3433 21.4719C21.1369 21.6609 20.8934 21.8047 20.6281 21.8942C20.3629 21.9838 20.0818 22.017 19.803 21.9919C16.7093 21.6563 13.7377 20.6012 11.1267 18.9113C8.69763 17.3707 6.63816 15.3152 5.0946 12.8907C3.39553 10.2729 2.33816 7.29253 2.00816 4.19092C1.98304 3.91344 2.01608 3.63378 2.10518 3.36974C2.19428 3.1057 2.33749 2.86307 2.52568 2.65729C2.71388 2.45152 2.94295 2.28712 3.19829 2.17454C3.45364 2.06197 3.72967 2.0037 4.00882 2.00343H7.02489C7.51279 1.99864 7.9858 2.17109 8.35574 2.48863C8.72568 2.80617 8.96731 3.24714 9.0356 3.72934C9.1629 4.69271 9.39899 5.63861 9.73935 6.54899C9.87461 6.90815 9.90389 7.29847 9.82371 7.67372C9.74352 8.04897 9.55724 8.39342 9.28694 8.66624L8.01014 9.9406C9.44132 12.4527 11.5253 14.5328 14.0423 15.9612L15.3191 14.6869C15.5924 14.4171 15.9375 14.2311 16.3135 14.1511C16.6895 14.0711 17.0805 14.1003 17.4404 14.2353C18.3525 14.575 19.3002 14.8107 20.2654 14.9377C20.7538 15.0065 21.1998 15.252 21.5186 15.6276C21.8375 16.0031 22.0069 16.4826 21.9946 16.9747Z" stroke="#8C6A3C" stroke-linecap="round" stroke-linejoin="round"/>
</svg>
