<svg width="52" height="52" viewBox="0 0 52 52" fill="none" xmlns="http://www.w3.org/2000/svg">
<path d="M28.5613 2.57602H2C1.44772 2.57602 1 3.02373 1 3.57602V49.576C1 50.1283 1.44772 50.576 2 50.576H48C48.5523 50.576 49 50.1283 49 49.576V23.0085" stroke="#8C6A3C" stroke-width="2" stroke-linecap="round"/>
<path d="M18.2792 24.663L40.7365 1.3069C41.123 0.904891 41.7637 0.896753 42.1603 1.28881L50.3103 9.34499C50.6946 9.72486 50.7076 10.3413 50.3397 10.7371L28.4742 34.2569C28.2851 34.4604 28.0197 34.576 27.7418 34.576H19C18.4477 34.576 18 34.1283 18 33.576V25.3561C18 25.0977 18.1 24.8493 18.2792 24.663Z" stroke="#8C6A3C" stroke-width="2" stroke-linecap="round"/>
</svg>
