<svg width="49" height="55" viewBox="0 0 49 55" fill="none" xmlns="http://www.w3.org/2000/svg">
<path d="M48 38.1022V16.8978C47.9991 15.9682 47.7573 15.0552 47.299 14.2504C46.8407 13.4455 46.182 12.7772 45.3889 12.3124L27.1111 1.71021C26.3172 1.24494 25.4167 1 24.5 1C23.5833 1 22.6828 1.24494 21.8889 1.71021L3.61111 12.3124C2.81802 12.7772 2.15928 13.4455 1.70098 14.2504C1.24268 15.0552 1.00094 15.9682 1 16.8978V38.1022C1.00094 39.0318 1.24268 39.9448 1.70098 40.7496C2.15928 41.5545 2.81802 42.2228 3.61111 42.6876L21.8889 53.2898C22.6828 53.7551 23.5833 54 24.5 54C25.4167 54 26.3172 53.7551 27.1111 53.2898L45.3889 42.6876C46.182 42.2228 46.8407 41.5545 47.299 40.7496C47.7573 39.9448 47.9991 39.0318 48 38.1022Z" stroke="#8C6A3C" stroke-width="2" stroke-linecap="round" stroke-linejoin="round"/>
<path d="M2 14L25 27L48 14" stroke="#8C6A3C" stroke-width="2" stroke-linecap="round" stroke-linejoin="round"/>
<path d="M25 54V27" stroke="#8C6A3C" stroke-width="2" stroke-linecap="round" stroke-linejoin="round"/>
<path d="M14 7L36 20.8293V28" stroke="#8C6A3C" stroke-width="2" stroke-linecap="round"/>
</svg>
