<svg width="64" height="43" viewBox="0 0 64 43" fill="none" xmlns="http://www.w3.org/2000/svg">
<path d="M15.1138 1H43.3496C43.9019 1 44.3496 1.44772 44.3496 2V4.05324M57.9593 17.2319H45.3496C44.7973 17.2319 44.3496 16.7842 44.3496 16.2319V4.05324M57.9593 17.2319L62.6713 21.4994C62.8806 21.689 63 21.9582 63 22.2406V35C63 35.5523 62.5523 36 62 36H15.1138M57.9593 17.2319L50.6866 4.5556C50.5083 4.24487 50.1774 4.05324 49.8192 4.05324H44.3496M28.7236 9.62319H7.55285M28.7236 18.2464H1M18.6423 26.3623H5.03252" stroke="#8C6A3C" stroke-width="2" stroke-linecap="round"/>
<circle cx="27.5" cy="35.5" r="6.5" fill="white" stroke="#8C6A3C" stroke-width="2"/>
<circle cx="50.5" cy="35.5" r="6.5" fill="white" stroke="#8C6A3C" stroke-width="2"/>
</svg>
