<svg width="1049" height="179" viewBox="0 0 1049 179" fill="none" xmlns="http://www.w3.org/2000/svg">
<g opacity="0.2">
<path d="M99.9189 7.73047C100.298 7.73047 100.488 8.2636 100.488 9.32987C100.488 10.3961 100.298 10.9293 99.9189 10.9293C94.6067 10.9293 90.6224 11.4624 87.9663 12.5287C85.4999 13.5949 83.7924 15.4609 82.8438 18.1266C82.0849 20.7923 81.7054 24.7019 81.7054 29.8555L79.9677 103.34C79.9677 122.355 75.035 137.372 65.1694 148.39C55.3039 159.408 41.2645 164.917 23.0512 164.917C16.2212 164.917 10.7193 163.584 6.5454 160.919C2.18179 158.431 0 154.965 0 150.523C0 147.501 1.04346 144.747 3.13041 142.259C5.21735 139.771 8.53747 138.527 13.0908 138.527C17.2647 138.527 20.3951 139.504 22.482 141.459C24.7587 143.592 26.561 145.991 27.8891 148.657C29.2171 151.5 30.5452 153.988 31.8732 156.12C33.2013 158.253 35.0985 159.319 37.5649 159.319C42.4977 159.319 46.1972 156.12 48.6636 149.723C51.13 143.325 52.3632 132.574 52.3632 117.468L54.1008 29.3224C54.1008 24.1688 53.4368 20.348 52.1087 17.86C50.9704 15.1943 48.5989 13.4172 44.9942 12.5287C41.3895 11.4624 35.9824 10.9293 28.7729 10.9293C28.3935 10.9293 28.2038 10.3961 28.2038 9.32987C28.2038 8.2636 28.3935 7.73047 28.7729 7.73047C34.4646 7.73047 40.5357 7.90817 46.9863 8.26359C53.6265 8.4413 60.4565 8.53016 67.4763 8.53016C73.9268 8.53016 79.8082 8.4413 85.1204 8.26359C90.6224 7.90817 95.5553 7.73047 99.9189 7.73047Z" fill="#D8D8E5"/>
<path d="M118.134 103.695C117.565 103.695 116.996 102.628 116.427 100.496C115.858 98.3634 115.478 96.142 115.289 93.8317C115.289 91.5215 115.478 90.3663 115.858 90.3663L203.224 77.8377C203.794 77.66 204.268 78.7262 204.647 81.0365C205.217 83.169 205.596 85.3904 205.786 87.7007C205.975 89.8332 205.786 90.9883 205.217 91.1661L118.134 103.695Z" fill="#D8D8E5"/>
<path d="M269.03 151.677C269.03 157.008 269.694 161.096 271.022 163.939C272.35 166.605 275.101 168.471 279.275 169.537C283.639 170.603 290.089 171.136 298.627 171.136C299.196 171.136 299.48 171.669 299.48 172.736C299.48 173.802 299.196 174.335 298.627 174.335C292.555 174.335 285.915 174.246 278.706 174.069C271.686 173.891 264.002 173.802 255.655 173.802C249.014 173.802 242.659 173.891 236.588 174.069C230.516 174.246 225.109 174.335 220.366 174.335C219.797 174.335 219.513 173.802 219.513 172.736C219.513 171.669 219.797 171.136 220.366 171.136C226.627 171.136 231.275 170.692 234.311 169.803C237.346 168.915 239.339 167.138 240.287 164.472C241.425 161.806 241.995 157.897 241.995 152.743V29.3224C241.995 24.1688 241.425 20.348 240.287 17.86C239.339 15.1943 237.346 13.4172 234.311 12.5287C231.275 11.4624 226.627 10.9293 220.366 10.9293C219.797 10.9293 219.513 10.3961 219.513 9.32987C219.513 8.2636 219.797 7.73047 220.366 7.73047C225.109 7.73047 230.422 7.90817 236.303 8.26359C242.374 8.4413 248.73 8.53016 255.37 8.53016C259.923 8.53016 265.805 8.26359 273.014 7.73047C280.413 7.19733 287.528 6.93076 294.358 6.93076C305.931 6.93076 316.176 8.44131 325.093 11.4624C334.2 14.3058 341.409 18.9263 346.721 25.3239C352.033 31.7215 354.879 40.1628 355.259 50.6478C355.448 59.8888 353.741 67.8858 350.136 74.6389C346.532 81.3919 341.599 86.9898 335.338 91.4326C329.267 95.6977 322.532 98.9854 315.133 101.296C307.733 103.428 300.334 104.494 292.935 104.494C290.848 104.494 288.571 104.406 286.105 104.228C283.828 104.05 281.552 103.695 279.275 103.162C278.706 102.984 278.516 102.362 278.706 101.296C278.896 100.052 279.37 99.5185 280.129 99.6962C281.646 100.052 283.354 100.318 285.251 100.496C287.148 100.674 288.761 100.762 290.089 100.762C296.35 100.762 302.137 99.1631 307.449 95.9643C312.761 92.7655 317.03 87.8784 320.255 81.3031C323.67 74.7277 325.378 66.4641 325.378 56.5123C325.378 47.0936 323.765 39.0966 320.54 32.5212C317.314 25.9459 312.761 20.97 306.88 17.5935C301.188 14.0392 294.168 12.2621 285.82 12.2621C281.457 12.2621 278.042 12.7064 275.575 13.5949C273.109 14.3058 271.401 15.9052 270.453 18.3932C269.504 20.8811 269.03 24.7019 269.03 29.8555V151.677Z" fill="#D8D8E5"/>
<path d="M467.336 177.534C453.676 177.534 441.249 175.312 430.055 170.87C419.051 166.249 409.565 159.94 401.597 151.943C393.818 143.946 387.747 134.794 383.384 124.487C379.21 114.002 377.123 102.895 377.123 91.1661C377.123 76.7714 380.063 64.1539 385.945 53.3135C392.016 42.4731 399.984 33.4986 409.85 26.3902C419.715 19.104 430.53 13.6838 442.293 10.1296C454.055 6.57533 465.723 4.79821 477.296 4.79821C491.336 4.79821 503.857 7.19732 514.861 11.9955C526.055 16.616 535.541 22.9248 543.319 30.9218C551.098 38.9188 556.979 47.9821 560.964 58.1117C565.137 68.2413 567.224 78.6374 567.224 89.3001C567.224 101.74 564.568 113.291 559.256 123.954C553.944 134.617 546.64 143.946 537.343 151.943C528.237 159.94 517.612 166.249 505.47 170.87C493.517 175.312 480.806 177.534 467.336 177.534ZM477.012 171.136C488.395 171.136 498.545 168.293 507.462 162.606C516.569 156.919 523.683 148.567 528.806 137.549C534.118 126.353 536.774 112.847 536.774 97.0305C536.774 80.5034 533.928 65.8421 528.237 53.0469C522.545 40.2517 514.387 30.211 503.762 22.9248C493.138 15.4609 480.427 11.729 465.628 11.729C447.225 11.729 432.901 17.9489 422.656 30.3887C412.601 42.6508 407.573 59.7111 407.573 81.5696C407.573 94.3649 409.281 106.272 412.696 117.29C416.111 128.13 420.854 137.638 426.925 145.812C433.185 153.987 440.49 160.296 448.838 164.739C457.375 169.004 466.767 171.136 477.012 171.136Z" fill="#D8D8E5"/>
<path d="M639.971 152.743C639.971 157.897 640.446 161.806 641.394 164.472C642.532 167.138 644.619 168.915 647.655 169.803C650.691 170.692 655.339 171.136 661.599 171.136C662.169 171.136 662.453 171.669 662.453 172.736C662.453 173.802 662.169 174.335 661.599 174.335C656.856 174.335 651.544 174.246 645.663 174.069C639.782 173.891 633.236 173.802 626.026 173.802C619.386 173.802 613.03 173.891 606.959 174.069C600.888 174.246 595.481 174.335 590.738 174.335C590.169 174.335 589.884 173.802 589.884 172.736C589.884 171.669 590.169 171.136 590.738 171.136C596.809 171.136 601.457 170.692 604.682 169.803C607.908 168.915 609.995 167.138 610.943 164.472C612.082 161.806 612.651 157.897 612.651 152.743V29.3224C612.651 24.1688 612.082 20.348 610.943 17.86C609.995 15.1943 607.908 13.4172 604.682 12.5287C601.457 11.4624 596.809 10.9293 590.738 10.9293C590.169 10.9293 589.884 10.3961 589.884 9.32987C589.884 8.2636 590.169 7.73047 590.738 7.73047C595.481 7.73047 600.888 7.90817 606.959 8.26359C613.03 8.4413 619.386 8.53016 626.026 8.53016C633.236 8.53016 639.782 8.4413 645.663 8.26359C651.734 7.90817 657.046 7.73047 661.599 7.73047C662.169 7.73047 662.453 8.2636 662.453 9.32987C662.453 10.3961 662.169 10.9293 661.599 10.9293C655.528 10.9293 650.88 11.4624 647.655 12.5287C644.619 13.5949 642.532 15.4609 641.394 18.1266C640.446 20.7923 639.971 24.7019 639.971 29.8555V152.743Z" fill="#D8D8E5"/>
<path d="M707.38 142.08V13.8615L715.063 14.3946V142.08C715.063 151.499 717.055 158.696 721.039 163.672C725.024 168.648 730.715 171.136 738.114 171.136C738.684 171.136 738.968 171.669 738.968 172.736C738.968 173.802 738.684 174.335 738.114 174.335C734.13 174.335 729.956 174.246 725.593 174.069C721.419 173.891 716.771 173.802 711.648 173.802C706.146 173.802 700.834 173.891 695.712 174.069C690.779 174.246 686.131 174.335 681.767 174.335C681.198 174.335 680.913 173.802 680.913 172.736C680.913 171.669 681.198 171.136 681.767 171.136C690.115 171.136 696.47 168.648 700.834 163.672C705.198 158.696 707.38 151.499 707.38 142.08ZM851.949 178.067C851.949 178.6 851.475 178.867 850.526 178.867C849.577 179.044 848.913 179.044 848.534 178.867L711.648 29.589C704.818 22.3028 698.937 17.4157 694.004 14.9278C689.261 12.2621 684.613 10.9293 680.06 10.9293C679.49 10.9293 679.206 10.3961 679.206 9.32987C679.206 8.2636 679.49 7.73047 680.06 7.73047C683.664 7.73047 687.364 7.81932 691.158 7.99703C694.953 8.17474 698.463 8.26359 701.688 8.26359C707.38 8.26359 712.502 8.17474 717.055 7.99703C721.798 7.81932 725.403 7.73047 727.869 7.73047C730.336 7.73047 732.138 8.79673 733.277 10.9293C734.415 12.8841 737.261 16.4383 741.814 21.592L849.672 140.481L851.949 178.067ZM851.949 40.2517V178.067L844.265 170.07V40.2517C844.265 30.833 842.273 23.6356 838.289 18.6597C834.494 13.5061 828.803 10.9293 821.214 10.9293C820.834 10.9293 820.645 10.3961 820.645 9.32987C820.645 8.2636 820.834 7.73047 821.214 7.73047C825.198 7.73047 829.372 7.90817 833.735 8.26359C838.099 8.4413 842.842 8.53016 847.965 8.53016C852.897 8.53016 857.735 8.4413 862.478 8.26359C867.221 7.90817 871.585 7.73047 875.569 7.73047C876.138 7.73047 876.423 8.2636 876.423 9.32987C876.423 10.3961 876.138 10.9293 875.569 10.9293C867.98 10.9293 862.099 13.5061 857.925 18.6597C853.941 23.6356 851.949 30.833 851.949 40.2517Z" fill="#D8D8E5"/>
<path d="M937.159 13.3284C925.586 13.3284 916.1 16.7049 908.701 23.4579C901.491 30.211 895.8 40.1628 891.626 53.3135C891.626 53.8466 891.057 54.1132 889.918 54.1132C888.97 53.9355 888.495 53.6689 888.495 53.3135C888.875 50.8255 889.254 47.449 889.634 43.1839C890.013 38.7411 890.393 33.9429 890.772 28.7893C891.341 23.6356 891.721 18.6597 891.91 13.8615C892.29 8.88558 892.48 4.88707 892.48 1.86598C892.48 0.977422 892.954 0.533144 893.903 0.533144C895.041 0.533144 895.61 0.977422 895.61 1.86598C895.61 3.64309 896.559 4.97593 898.456 5.86449C900.543 6.57533 902.819 7.10847 905.286 7.46389C907.752 7.64161 909.839 7.73047 911.547 7.73047C927.863 8.26359 946.93 8.53016 968.748 8.53016C982.218 8.53016 992.842 8.4413 1000.62 8.26359C1008.59 7.90817 1016.27 7.73047 1023.67 7.73047C1030.5 7.73047 1035.62 7.37504 1039.04 6.66419C1042.64 5.77564 1044.92 3.90966 1045.87 1.06627C1046.06 0.355424 1046.63 0 1047.58 0C1048.53 0 1049 0.355424 1049 1.06627C1048.81 3.90966 1048.53 7.81932 1048.15 12.7952C1047.77 17.5934 1047.48 22.7471 1047.29 28.2561C1047.1 33.5875 1046.91 38.5634 1046.72 43.1839C1046.53 47.6267 1046.44 51.0032 1046.44 53.3135C1046.44 53.6689 1045.87 53.8466 1044.73 53.8466C1043.78 53.8466 1043.21 53.6689 1043.02 53.3135C1040.94 39.2743 1036.38 29.1447 1029.36 22.9248C1022.34 16.5272 1012.95 13.3284 1001.19 13.3284C996.068 13.3284 992.178 13.7727 989.522 14.6612C986.866 15.5498 985.064 17.238 984.115 19.726C983.167 22.0362 982.692 25.4128 982.692 29.8555V152.743C982.692 157.897 983.261 161.806 984.4 164.472C985.728 167.138 988.099 168.915 991.514 169.803C995.119 170.692 1000.53 171.136 1007.74 171.136C1008.3 171.136 1008.59 171.669 1008.59 172.736C1008.59 173.802 1008.3 174.335 1007.74 174.335C1002.61 174.335 996.732 174.246 990.091 174.069C983.641 173.891 976.526 173.802 968.748 173.802C961.349 173.802 954.424 173.891 947.973 174.069C941.523 174.246 935.546 174.335 930.044 174.335C929.665 174.335 929.475 173.802 929.475 172.736C929.475 171.669 929.665 171.136 930.044 171.136C937.254 171.136 942.661 170.692 946.266 169.803C949.87 168.915 952.242 167.138 953.38 164.472C954.708 161.806 955.372 157.897 955.372 152.743V29.3224C955.372 24.8796 954.898 21.592 953.949 19.4594C953.191 17.1492 951.483 15.5498 948.827 14.6612C946.171 13.7727 942.281 13.3284 937.159 13.3284Z" fill="#D8D8E5"/>
</g>
</svg>
