<svg width="18" height="16" viewBox="0 0 18 16" fill="none" xmlns="http://www.w3.org/2000/svg">
<path d="M0.317934 7.67194L4.4655 9.25234L6.07086 14.5232C6.17358 14.8608 6.57792 14.9856 6.8463 14.7616L9.15823 12.8374C9.40057 12.6358 9.74575 12.6258 9.99901 12.8134L14.1689 15.9042C14.456 16.1173 14.8627 15.9567 14.9347 15.6025L17.9894 0.601498C18.068 0.214607 17.6956 -0.108149 17.3348 0.0343316L0.313074 6.73822C-0.106987 6.90361 -0.103327 7.51078 0.317934 7.67194ZM5.81214 8.41105L13.918 3.31415C14.0637 3.22282 14.2136 3.42392 14.0885 3.54239L7.39878 9.89093C7.16364 10.1144 7.01196 10.4134 6.969 10.738L6.74112 12.4621C6.71094 12.6923 6.3942 12.7152 6.33198 12.4924L5.45556 9.34845C5.35518 8.98986 5.50146 8.60683 5.81214 8.41105Z" fill="#8C6A3C"/>
</svg>
