<svg width="18" height="18" viewBox="0 0 18 18" fill="none" xmlns="http://www.w3.org/2000/svg">
<path d="M8.68772 0.0126992C3.32584 0.293836 -0.213607 4.51347 0.0100184 9.83444C0.107694 12.1635 1.04075 14.1676 1.26181 16.378C1.31836 16.9506 1.15385 17.6573 1.81187 17.9075C2.62155 18.2144 3.86306 17.6985 4.54165 17.2265C4.77298 17.0692 4.99404 16.8861 5.16369 16.6591C5.86541 17.1259 6.53114 17.5773 7.36653 17.7785C11.0448 18.6632 15.0752 16.6385 16.8668 13.3861C20.234 7.27584 15.6818 -0.353553 8.68772 0.0126992ZM6.60569 12.7645C6.31523 12.9914 6.03506 13.3009 5.71375 13.4789C5.24851 13.7291 5.10457 13.4686 4.92978 13.0559C4.37971 11.7431 4.31288 9.50688 4.63418 8.13214C5.06601 6.2622 6.50801 4.61664 8.4898 4.44125C10.4947 4.26329 12.3557 5.28466 13.1962 7.12882C15.0572 11.2324 10.2942 15.2844 6.60569 12.767V12.7645Z" fill="#8C6A3C"/>
</svg>
