<svg width="60" height="26" viewBox="0 0 60 26" fill="none" xmlns="http://www.w3.org/2000/svg">
<g opacity="0.5" clip-path="url(#clip0_2005_86)">
<path d="M10 2C10.5535 2 11 1.55349 11 1C11 0.446512 10.5535 0 10 0C9.44651 0 9 0.446512 9 1C9 1.55349 9.44651 2 10 2Z" fill="#2B2620"/>
<path d="M26.8394 13.8722H25L27.4882 0L31.6053 10.0199L35.7637 0L38 13.8722H36.1606L34.9562 6.09987L31.5155 14L28.099 6.08483L26.8428 13.8722H26.8394Z" fill="#2B2620"/>
<path d="M39 0.123306H41.0133L44.2212 8.21924L47.5 0L50.6689 8.21924L53.9867 0.133875H56L50.559 13L47.3901 4.43198L44.1822 13L39 0.123306Z" fill="#2B2620"/>
<path d="M58 0H60V13H58V0Z" fill="#2B2620"/>
<path d="M39 17H39.0001V21H39V17Z" fill="#2B2620"/>
<path d="M17.3023 13.6587H20.3121L21 12.5089H16.5033L14.5362 17.9615L13.2857 15.7155L11.1537 19.5933V3H10V22H11.1537L13.2857 17.9436L14.6042 20.6967L14.9195 19.8611L15.1954 19.1505" fill="#2B2620"/>
<path d="M3.69772 11.3429H0.673616L0 12.4929H4.49674L6.46384 7.025L7.7 9.28571L9.83192 5.40714V22H11V3H9.83192L7.71433 7.05714L6.39577 4.30357L6.08046 5.13929H6.06612L5.80456 5.83929V5.85357" fill="#2B2620"/>
<path d="M27.4352 16.4037H27.8462V20H27.4352V19.6147C27.2126 19.9127 26.8975 20.0617 26.4899 20.0617C26.1269 20.0617 25.8289 19.9349 25.596 19.6815C25.3631 19.4246 25.2466 19.1163 25.2466 18.7567C25.2466 18.3936 25.3631 18.0854 25.596 17.8319C25.8289 17.575 26.1269 17.4466 26.4899 17.4466C26.8906 17.4466 27.2057 17.5956 27.4352 17.8936V16.4037ZM27.4352 19.1574V18.3508C27.3633 18.1933 27.2503 18.0648 27.0961 17.9655C26.9454 17.8628 26.7759 17.8114 26.5875 17.8114C26.3204 17.8114 26.0994 17.9021 25.9248 18.0837C25.7501 18.2652 25.6628 18.4895 25.6628 18.7567C25.6628 19.0239 25.7501 19.2482 25.9248 19.4297C26.0994 19.6078 26.3204 19.6969 26.5875 19.6969C26.7691 19.6969 26.9369 19.6455 27.091 19.5428C27.2486 19.44 27.3633 19.3116 27.4352 19.1574ZM28.7592 20V17.5083H29.165V20H28.7592ZM28.7643 16.8661C28.7129 16.8113 28.6872 16.7445 28.6872 16.6657C28.6872 16.5869 28.7129 16.5218 28.7643 16.4705C28.8191 16.4157 28.8859 16.3883 28.9647 16.3883C29.0435 16.3883 29.1085 16.4157 29.1599 16.4705C29.2147 16.5218 29.2421 16.5869 29.2421 16.6657C29.2421 16.7445 29.2147 16.8113 29.1599 16.8661C29.1085 16.9174 29.0435 16.9431 28.9647 16.9431C28.8859 16.9431 28.8191 16.9174 28.7643 16.8661ZM32.0963 19.8305V19.5839C31.8806 19.8716 31.5637 20.0154 31.1459 20.0154C30.7828 20.0154 30.4848 19.8904 30.2519 19.6404C30.019 19.3903 29.9026 19.0872 29.9026 18.731C29.9026 18.3748 30.019 18.0717 30.2519 17.8217C30.4848 17.5716 30.7828 17.4466 31.1459 17.4466C31.5637 17.4466 31.8806 17.5905 32.0963 17.8782V17.5083H32.5022V19.8253C32.5022 20.2226 32.372 20.5257 32.1117 20.7347C31.8514 20.9436 31.5278 21.0481 31.1407 21.0481C30.7606 21.0481 30.4386 20.9727 30.1749 20.822V20.4316C30.4523 20.5994 30.7606 20.6833 31.0996 20.6833C31.3942 20.6833 31.6339 20.6131 31.8189 20.4727C32.0039 20.3357 32.0963 20.1216 32.0963 19.8305ZM32.0963 19.1266V18.3354C32.0244 18.1779 31.9114 18.0511 31.7572 17.9552C31.6065 17.8593 31.437 17.8114 31.2486 17.8114C30.9815 17.8114 30.7588 17.9004 30.5807 18.0785C30.4061 18.2566 30.3187 18.4741 30.3187 18.731C30.3187 18.9947 30.4061 19.2139 30.5807 19.3886C30.7588 19.5633 30.9815 19.6506 31.2486 19.6506C31.437 19.6506 31.6065 19.6027 31.7572 19.5068C31.9114 19.4109 32.0244 19.2842 32.0963 19.1266ZM33.4051 20V17.5083H33.811V20H33.4051ZM33.4102 16.8661C33.3589 16.8113 33.3332 16.7445 33.3332 16.6657C33.3332 16.5869 33.3589 16.5218 33.4102 16.4705C33.465 16.4157 33.5318 16.3883 33.6106 16.3883C33.6894 16.3883 33.7545 16.4157 33.8058 16.4705C33.8606 16.5218 33.888 16.5869 33.888 16.6657C33.888 16.7445 33.8606 16.8113 33.8058 16.8661C33.7545 16.9174 33.6894 16.9431 33.6106 16.9431C33.5318 16.9431 33.465 16.9174 33.4102 16.8661ZM35.725 20.0617C35.4887 20.0617 35.3106 19.9931 35.1907 19.8561C35.0708 19.7191 35.0109 19.5342 35.0109 19.3013V17.8628H34.4355V17.5083H35.0109V16.753H35.4219V17.5083H36.2747V17.8628H35.4219V19.1831C35.4219 19.3681 35.4544 19.4982 35.5195 19.5736C35.5846 19.6489 35.6925 19.6866 35.8432 19.6866C36.0042 19.6866 36.1377 19.6524 36.2439 19.5839V19.9486C36.1275 20.024 35.9545 20.0617 35.725 20.0617ZM37.7886 19.6969C37.9633 19.6969 38.1243 19.6592 38.2715 19.5839C38.4222 19.5085 38.5404 19.416 38.626 19.3064V18.9673C38.3931 18.8132 38.1328 18.7361 37.8451 18.7361C37.6259 18.7361 37.453 18.779 37.3262 18.8646C37.2029 18.9468 37.1413 19.0632 37.1413 19.2139C37.1413 19.3749 37.2029 19.4965 37.3262 19.5787C37.4495 19.6575 37.6037 19.6969 37.7886 19.6969ZM37.6756 20.0617C37.4118 20.0617 37.1875 19.988 37.0026 19.8407C36.821 19.6935 36.7303 19.4914 36.7303 19.2345C36.7303 18.9776 36.8262 18.7772 37.018 18.6334C37.2132 18.4861 37.4564 18.4125 37.7475 18.4125C38.0866 18.4125 38.3794 18.4895 38.626 18.6437V18.4176C38.626 18.0135 38.3589 17.8114 37.8246 17.8114C37.5334 17.8114 37.2629 17.8936 37.0128 18.058V17.6727C37.2629 17.522 37.5626 17.4466 37.9119 17.4466C38.2476 17.4466 38.5181 17.5254 38.7237 17.6829C38.9292 17.8405 39.0319 18.0717 39.0319 18.3765V19.3578C39.0319 19.5736 39.109 19.6815 39.2631 19.6815C39.3248 19.6815 39.3727 19.6695 39.407 19.6455V19.964C39.3453 20.0051 39.258 20.0257 39.1449 20.0257C38.8812 20.0257 38.7219 19.8955 38.6671 19.6352C38.4137 19.9195 38.0832 20.0617 37.6756 20.0617ZM40.5821 20.0617C40.4177 20.0617 40.2789 20.0137 40.1659 19.9178C40.0529 19.8219 39.9964 19.6626 39.9964 19.44V16.4037H40.4074V19.3372C40.4074 19.5702 40.5119 19.6866 40.7208 19.6866C40.8098 19.6866 40.8886 19.6661 40.9571 19.625V19.9897C40.8646 20.0377 40.7396 20.0617 40.5821 20.0617ZM43.7089 19.6969C43.8836 19.6969 44.0446 19.6592 44.1918 19.5839C44.3425 19.5085 44.4607 19.416 44.5463 19.3064V18.9673C44.3134 18.8132 44.0531 18.7361 43.7654 18.7361C43.5462 18.7361 43.3732 18.779 43.2465 18.8646C43.1232 18.9468 43.0616 19.0632 43.0616 19.2139C43.0616 19.3749 43.1232 19.4965 43.2465 19.5787C43.3698 19.6575 43.524 19.6969 43.7089 19.6969ZM43.5959 20.0617C43.3321 20.0617 43.1078 19.988 42.9229 19.8407C42.7413 19.6935 42.6506 19.4914 42.6506 19.2345C42.6506 18.9776 42.7465 18.7772 42.9383 18.6334C43.1335 18.4861 43.3767 18.4125 43.6678 18.4125C44.0069 18.4125 44.2997 18.4895 44.5463 18.6437V18.4176C44.5463 18.0135 44.2792 17.8114 43.7449 17.8114C43.4537 17.8114 43.1832 17.8936 42.9331 18.058V17.6727C43.1832 17.522 43.4829 17.4466 43.8322 17.4466C44.1679 17.4466 44.4384 17.5254 44.644 17.6829C44.8495 17.8405 44.9522 18.0717 44.9522 18.3765V19.3578C44.9522 19.5736 45.0293 19.6815 45.1834 19.6815C45.2451 19.6815 45.293 19.6695 45.3273 19.6455V19.964C45.2656 20.0051 45.1783 20.0257 45.0652 20.0257C44.8015 20.0257 44.6422 19.8955 44.5874 19.6352C44.334 19.9195 44.0035 20.0617 43.5959 20.0617ZM47.9306 19.8305V19.5839C47.7148 19.8716 47.398 20.0154 46.9802 20.0154C46.6171 20.0154 46.3191 19.8904 46.0862 19.6404C45.8533 19.3903 45.7369 19.0872 45.7369 18.731C45.7369 18.3748 45.8533 18.0717 46.0862 17.8217C46.3191 17.5716 46.6171 17.4466 46.9802 17.4466C47.398 17.4466 47.7148 17.5905 47.9306 17.8782V17.5083H48.3365V19.8253C48.3365 20.2226 48.2063 20.5257 47.946 20.7347C47.6857 20.9436 47.3621 21.0481 46.975 21.0481C46.5948 21.0481 46.2729 20.9727 46.0092 20.822V20.4316C46.2866 20.5994 46.5948 20.6833 46.9339 20.6833C47.2285 20.6833 47.4682 20.6131 47.6532 20.4727C47.8381 20.3357 47.9306 20.1216 47.9306 19.8305ZM47.9306 19.1266V18.3354C47.8587 18.1779 47.7457 18.0511 47.5915 17.9552C47.4408 17.8593 47.2713 17.8114 47.0829 17.8114C46.8158 17.8114 46.5931 17.9004 46.415 18.0785C46.2403 18.2566 46.153 18.4741 46.153 18.731C46.153 18.9947 46.2403 19.2139 46.415 19.3886C46.5931 19.5633 46.8158 19.6506 47.0829 19.6506C47.2713 19.6506 47.4408 19.6027 47.5915 19.5068C47.7457 19.4109 47.8587 19.2842 47.9306 19.1266ZM50.3748 20.0617C49.9878 20.0617 49.6624 19.9401 49.3987 19.6969C49.1349 19.4503 49.0031 19.1369 49.0031 18.7567C49.0031 18.3799 49.1195 18.0683 49.3524 17.8217C49.5887 17.5716 49.8953 17.4466 50.272 17.4466C50.4673 17.4466 50.642 17.4877 50.7961 17.5699C50.9536 17.6487 51.0769 17.7531 51.166 17.8833C51.255 18.0135 51.3218 18.1522 51.3664 18.2994C51.4143 18.4467 51.4383 18.5957 51.4383 18.7464V18.8594H49.4192C49.4466 19.1163 49.5528 19.3201 49.7377 19.4708C49.9261 19.6215 50.1659 19.6969 50.457 19.6969C50.7447 19.6969 51.0119 19.6198 51.2585 19.4657V19.8253C51.0495 19.9829 50.755 20.0617 50.3748 20.0617ZM49.4243 18.5306H51.0273C51.017 18.3491 50.9468 18.1847 50.8166 18.0374C50.6899 17.8867 50.5015 17.8114 50.2515 17.8114C50.0117 17.8114 49.8165 17.8833 49.6658 18.0272C49.5185 18.1676 49.438 18.3354 49.4243 18.5306ZM52.5289 20H52.1179V17.5083H52.5289V17.8833C52.6283 17.76 52.7619 17.6572 52.9297 17.575C53.1009 17.4894 53.2927 17.4466 53.5051 17.4466C53.8168 17.4466 54.0514 17.5374 54.2089 17.7189C54.3699 17.9004 54.4504 18.1556 54.4504 18.4844V20H54.0394V18.5717C54.0394 18.4245 54.0171 18.2994 53.9726 18.1967C53.9315 18.0905 53.875 18.0135 53.8031 17.9655C53.7312 17.9176 53.6592 17.8833 53.5873 17.8628C53.5188 17.8422 53.4434 17.8319 53.3612 17.8319C53.2003 17.8319 53.0393 17.8833 52.8783 17.9861C52.7173 18.0854 52.6009 18.2001 52.5289 18.3303V20ZM56.4095 20.0617C56.0328 20.0617 55.716 19.9366 55.4591 19.6866C55.2056 19.4366 55.0789 19.1249 55.0789 18.7516C55.0789 18.3748 55.2056 18.0631 55.4591 17.8165C55.716 17.5699 56.0345 17.4466 56.4147 17.4466C56.7024 17.4466 56.9524 17.5065 57.1648 17.6264V17.9963C56.9456 17.873 56.7144 17.8114 56.4712 17.8114C56.1972 17.8114 55.966 17.9004 55.7776 18.0785C55.5892 18.2566 55.495 18.4827 55.495 18.7567C55.495 19.0273 55.5892 19.2516 55.7776 19.4297C55.966 19.6078 56.1972 19.6969 56.4712 19.6969C56.752 19.6969 56.9986 19.6267 57.211 19.4862V19.851C56.9781 19.9914 56.7109 20.0617 56.4095 20.0617ZM58.1123 21.0481C57.9171 21.0481 57.7818 21.0241 57.7065 20.9761V20.6011C57.8058 20.6559 57.9205 20.6833 58.0507 20.6833C58.2048 20.6833 58.3333 20.6217 58.436 20.4983C58.5422 20.3785 58.6518 20.1815 58.7648 19.9075L57.6602 17.5083H58.1123L58.9703 19.4297L59.7975 17.5083H60.2393L59.0166 20.2774C58.9001 20.5343 58.7699 20.7261 58.6261 20.8528C58.4857 20.983 58.3144 21.0481 58.1123 21.0481Z" fill="#2B2620"/>
</g>
<defs>
<clipPath id="clip0_2005_86">
<rect width="60" height="26" fill="white"/>
</clipPath>
</defs>
</svg>
