<svg width="40" height="40" viewBox="0 0 40 40" fill="none" xmlns="http://www.w3.org/2000/svg">
<path d="M11 13V18H16" stroke="#8C6A3C" stroke-linecap="round" stroke-linejoin="round"/>
<path d="M29 27V22H24" stroke="#8C6A3C" stroke-linecap="round" stroke-linejoin="round"/>
<path d="M26.9464 17.9993C26.5314 16.8047 25.8262 15.7366 24.8964 14.8947C23.9667 14.0528 22.8428 13.4646 21.6296 13.185C20.4164 12.9053 19.1534 12.9433 17.9585 13.2954C16.7636 13.6475 15.6757 14.3023 14.7964 15.1986L11 18.8329M29 22.1671L25.2036 25.8014C24.3243 26.6977 23.2364 27.3525 22.0415 27.7046C20.8466 28.0567 19.5836 28.0947 18.3704 27.815C17.1572 27.5354 16.0333 26.9472 15.1036 26.1053C14.1738 25.2634 13.4686 24.1953 13.0536 23.0007" stroke="#8C6A3C" stroke-linecap="round" stroke-linejoin="round"/>
<rect opacity="0.2" x="0.5" y="0.5" width="39" height="39" stroke="#200A0A"/>
</svg>
