<svg width="25" height="25" viewBox="0 0 25 25" fill="none" xmlns="http://www.w3.org/2000/svg">
<g clip-path="url(#clip0_2005_30)">
<path d="M25 23.8402L21.0263 19.8641C22.8639 17.7557 23.9859 15.0082 23.9859 11.9972C23.9859 5.38234 18.6062 0 11.9931 0C5.37996 0 0 5.38234 0 11.9972C0 18.6122 5.38022 23.995 11.9931 23.995C15.0079 23.995 17.7585 22.8682 19.8675 21.0245L23.8412 24.9997L25 23.8402ZM11.9931 22.3558C6.28392 22.3558 1.63854 17.7086 1.63854 11.9972C1.63854 6.28585 6.28418 1.63945 11.9931 1.63945C17.702 1.63945 22.3471 6.28612 22.3471 11.9975C22.3471 17.7089 17.7022 22.3558 11.9931 22.3558Z" fill="#200A0A"/>
</g>
<defs>
<clipPath id="clip0_2005_30">
<rect width="25" height="25" fill="white"/>
</clipPath>
</defs>
</svg>
