<svg width="111" height="89" viewBox="0 0 111 89" fill="none" xmlns="http://www.w3.org/2000/svg">
<path d="M14.4847 55.4329C13.5622 56.9689 10.3193 62.9825 5.43406 72.9687C3.14306 77.6518 1.93261 81.8797 1.29661 84.6305C0.660621 87.3813 0.814377 88.61 4.12247 87.7071C7.43056 86.8041 13.8883 83.7321 25.9792 71.6282C38.07 59.5242 55.5982 38.4813 66.0117 25.0299C76.4252 11.5785 79.1928 6.35614 80.6954 3.28186C82.1981 0.207579 82.3518 -0.560409 77.6646 6.10945C72.9773 12.7793 63.4444 26.9103 56.996 38.721C50.5476 50.5318 47.4724 59.594 45.8883 64.7233C44.3041 69.8525 44.3041 70.7741 49.6856 65.1049C55.0671 59.4358 65.83 47.148 69.7601 46.8082C73.6902 46.4684 70.4613 58.449 69.8743 64.1601C69.2872 69.8711 71.4398 68.9495 78.2377 64.174C85.0356 59.3985 96.4135 50.7971 102.582 46.2124C108.751 41.6278 109.366 41.3206 110 41.4695" stroke="#8C6A3C" stroke-width="2" stroke-linecap="round"/>
<path d="M90 67V69" stroke="#8C6A3C" stroke-width="2" stroke-linecap="round"/>
</svg>
