<svg width="25" height="22" viewBox="0 0 25 22" fill="none" xmlns="http://www.w3.org/2000/svg">
<path d="M0.441574 10.4371L6.20208 12.5871L8.43175 19.7576C8.57442 20.2169 9.136 20.3866 9.50875 20.0819L12.7198 17.4642C13.0563 17.19 13.5358 17.1763 13.8875 17.4316L19.679 21.6364C20.0778 21.9262 20.6427 21.7077 20.7427 21.2259L24.9853 0.81829C25.0944 0.291956 24.5773 -0.147128 24.0761 0.0467053L0.434824 9.1668C-0.148593 9.3918 -0.14351 10.2178 0.441574 10.4371ZM8.07242 11.4426L19.3306 4.50863C19.5329 4.38438 19.7411 4.65796 19.5673 4.81913L10.2761 13.4558C9.9495 13.7598 9.73884 14.1666 9.67917 14.6082L9.36267 16.9537C9.32075 17.2669 8.88083 17.298 8.79442 16.9949L7.57717 12.7178C7.43775 12.23 7.64092 11.7089 8.07242 11.4426Z" fill="#8C6A3C"/>
</svg>
