<svg width="14" height="15" viewBox="0 0 14 15" fill="none" xmlns="http://www.w3.org/2000/svg">
<path d="M0.5 3.29999H2.83333H13.5" stroke="#200A0A" stroke-linecap="round" stroke-linejoin="round"/>
<path d="M11.5 3.89999V13C11.5 13.3448 11.3645 13.6754 11.1234 13.9192C10.8823 14.163 10.5553 14.3 10.2143 14.3H3.78571C3.44472 14.3 3.1177 14.163 2.87658 13.9192C2.63546 13.6754 2.5 13.3448 2.5 13V3.89999M4.42857 3.09999V1.79999C4.42857 1.45521 4.56403 1.12455 4.80515 0.880749C5.04627 0.636952 5.37329 0.499988 5.71429 0.499988H8.28571C8.62671 0.499988 8.95373 0.636952 9.19485 0.880749C9.43597 1.12455 9.57143 1.45521 9.57143 1.79999V3.09999" stroke="#200A0A" stroke-linecap="round" stroke-linejoin="round"/>
<path d="M5.5 7.29999V11.3" stroke="#200A0A" stroke-linecap="round" stroke-linejoin="round"/>
<path d="M8.5 7.29999V11.3" stroke="#200A0A" stroke-linecap="round" stroke-linejoin="round"/>
</svg>
