<svg width="18" height="18" viewBox="0 0 18 18" fill="none" xmlns="http://www.w3.org/2000/svg">
<path d="M15.3639 2.62914C13.6641 0.933728 11.4039 0 9 0C6.59608 0 4.33586 0.933728 2.63606 2.62914C0.936145 4.32466 0 6.57883 0 8.97671C0 10.8723 0.580078 12.6717 1.6808 14.2008L0.0118652 18L4.18557 16.5621C5.625 17.4732 7.28383 17.9533 9 17.9533C11.4039 17.9533 13.6641 17.0196 15.3639 15.3242C17.0639 13.6286 18 11.3744 18 8.97671C18 6.57905 17.0639 4.32466 15.3639 2.62914ZM14.308 12.0604C13.4857 13.2731 13.4857 13.2731 13.4673 13.2955C13.0099 13.8526 12.2957 14.1405 11.4044 14.1405C11.0726 14.1405 10.7163 14.1007 10.3395 14.0198C9.07295 13.7484 7.69032 13.0392 6.44612 12.0229C5.20203 11.0063 4.23248 9.79409 3.71624 8.609C3.15022 7.30931 3.18439 6.17212 3.81281 5.40692C3.83104 5.38495 3.83104 5.38495 4.90518 4.29357L5.33441 3.85741L7.70592 7.00247L6.86876 8.022C7.27668 8.58582 7.75865 9.18721 8.36675 9.68401C8.97484 10.1809 9.66094 10.5337 10.2955 10.8215L11.139 9.79453L14.6431 11.5663L14.308 12.0604Z" fill="#8C6A3C"/>
</svg>
