<svg width="50" height="50" viewBox="0 0 50 50" fill="none" xmlns="http://www.w3.org/2000/svg">
<rect opacity="0.2" x="0.5" y="0.5" width="49" height="49" stroke="#200A0A"/>
<path d="M36.0179 15.1956C36.0112 14.9195 35.782 14.7012 35.506 14.7078L31.0073 14.8169C30.7312 14.8236 30.5129 15.0528 30.5196 15.3289C30.5263 15.6049 30.7555 15.8233 31.0315 15.8166L35.0304 15.7197L35.1273 19.7185C35.134 19.9946 35.3632 20.2129 35.6393 20.2062C35.9153 20.1995 36.1337 19.9703 36.127 19.6943L36.0179 15.1956ZM30 21L30.362 21.3449L35.8801 15.5526L35.5181 15.2077L35.1561 14.8628L29.638 20.6551L30 21Z" fill="#200A0A"/>
<path d="M14.9821 34.8044C14.9888 35.0805 15.218 35.2988 15.494 35.2922L19.9927 35.1831C20.2688 35.1764 20.4871 34.9472 20.4804 34.6711C20.4737 34.3951 20.2445 34.1767 19.9685 34.1834L15.9696 34.2803L15.8727 30.2815C15.866 30.0054 15.6368 29.7871 15.3607 29.7938C15.0847 29.8005 14.8663 30.0297 14.873 30.3057L14.9821 34.8044ZM21 29L20.638 28.6551L15.1199 34.4474L15.4819 34.7923L15.8439 35.1372L21.362 29.3449L21 29Z" fill="#200A0A"/>
</svg>
