<svg width="20" height="20" viewBox="0 0 20 20" fill="none" xmlns="http://www.w3.org/2000/svg">
<g clip-path="url(#clip0_556_4234)">
<path d="M16.8199 15.8916C18.2897 14.2049 19.188 12.0065 19.188 9.59789C19.188 4.30544 14.8843 0 9.59399 0C4.30369 0 0 4.30544 0 9.59789C0 14.8903 4.30369 19.1958 9.59399 19.1958C12.0057 19.1958 14.2063 18.2941 15.8942 16.8197L19.0733 20L20 19.0729L16.8209 15.8926L16.8199 15.8916ZM9.59399 17.8838C5.0274 17.8838 1.31141 14.1663 1.31141 9.59789C1.31141 5.02945 5.0274 1.31194 9.59399 1.31194C14.1606 1.31194 17.8776 5.02945 17.8776 9.59789C17.8776 14.1663 14.1616 17.8838 9.59399 17.8838Z" fill="#200A0A"/>
<path d="M10 6H9V9H6V10H9V13H10V10H13V9H10V6Z" fill="#200A0A"/>
</g>
<defs>
<clipPath id="clip0_556_4234">
<rect width="20" height="20" fill="white"/>
</clipPath>
</defs>
</svg>
